<mxfile host="app.diagrams.net" modified="2024-05-19T02:37:10.200Z" agent="Mozilla/5.0 (Windows NT 10.0; Win64; x64) AppleWebKit/537.36 (KHTML, like Gecko) Chrome/123.0.0.0 Safari/537.36 OPR/109.0.0.0" etag="J9uSMzbNg8-QAhnkhQoA" version="24.4.4" type="github">
  <diagram name="Page-1" id="2YBvvXClWsGukQMizWep">
    <mxGraphModel dx="3157" dy="1930" grid="1" gridSize="10" guides="1" tooltips="1" connect="1" arrows="1" fold="1" page="1" pageScale="1" pageWidth="850" pageHeight="1100" math="0" shadow="0">
      <root>
        <mxCell id="0" />
        <mxCell id="1" parent="0" />
        <mxCell id="_bEzwFX_pjWzvq1VgmYF-178" value="Alt" style="shape=umlFrame;whiteSpace=wrap;html=1;pointerEvents=0;width=50;height=21;" vertex="1" parent="1">
          <mxGeometry x="-450" y="640" width="500" height="60" as="geometry" />
        </mxCell>
        <mxCell id="_bEzwFX_pjWzvq1VgmYF-5" style="edgeStyle=orthogonalEdgeStyle;rounded=0;orthogonalLoop=1;jettySize=auto;html=1;dashed=1;endArrow=none;endFill=0;exitX=0.509;exitY=1.015;exitDx=0;exitDy=0;exitPerimeter=0;" edge="1" parent="1" source="_bEzwFX_pjWzvq1VgmYF-9">
          <mxGeometry relative="1" as="geometry">
            <mxPoint x="-178" y="1020" as="targetPoint" />
            <mxPoint x="-178" y="150.0000000000001" as="sourcePoint" />
          </mxGeometry>
        </mxCell>
        <mxCell id="_bEzwFX_pjWzvq1VgmYF-90" style="edgeStyle=orthogonalEdgeStyle;rounded=0;orthogonalLoop=1;jettySize=auto;html=1;dashed=1;endArrow=none;endFill=0;" edge="1" parent="1" source="_bEzwFX_pjWzvq1VgmYF-89">
          <mxGeometry relative="1" as="geometry">
            <mxPoint x="787" y="470" as="targetPoint" />
          </mxGeometry>
        </mxCell>
        <mxCell id="_bEzwFX_pjWzvq1VgmYF-3" value="Loop" style="shape=umlFrame;whiteSpace=wrap;html=1;pointerEvents=0;width=57;height=25;" vertex="1" parent="1">
          <mxGeometry x="-556" y="145" width="1646" height="575" as="geometry" />
        </mxCell>
        <mxCell id="_bEzwFX_pjWzvq1VgmYF-4" value="Alt" style="shape=umlFrame;whiteSpace=wrap;html=1;pointerEvents=0;width=50;height=21;" vertex="1" parent="1">
          <mxGeometry x="89" y="248" width="531" height="70" as="geometry" />
        </mxCell>
        <mxCell id="_bEzwFX_pjWzvq1VgmYF-6" value="UsuÃ¡rio" style="shape=umlLifeline;perimeter=lifelinePerimeter;whiteSpace=wrap;html=1;container=0;dropTarget=0;collapsible=0;recursiveResize=0;outlineConnect=0;portConstraint=eastwest;newEdgeStyle={&quot;edgeStyle&quot;:&quot;elbowEdgeStyle&quot;,&quot;elbow&quot;:&quot;vertical&quot;,&quot;curved&quot;:0,&quot;rounded&quot;:0};" vertex="1" parent="1">
          <mxGeometry x="-530" y="59" width="100" height="961" as="geometry" />
        </mxCell>
        <mxCell id="_bEzwFX_pjWzvq1VgmYF-7" value="main(String)" style="html=1;verticalAlign=bottom;endArrow=block;edgeStyle=elbowEdgeStyle;elbow=vertical;curved=0;rounded=0;" edge="1" parent="1" source="_bEzwFX_pjWzvq1VgmYF-8" target="_bEzwFX_pjWzvq1VgmYF-22">
          <mxGeometry x="-0.0068" relative="1" as="geometry">
            <mxPoint x="-375" y="180" as="sourcePoint" />
            <Array as="points">
              <mxPoint x="-390" y="170" />
            </Array>
            <mxPoint as="offset" />
          </mxGeometry>
        </mxCell>
        <mxCell id="_bEzwFX_pjWzvq1VgmYF-8" value="" style="html=1;points=[];perimeter=orthogonalPerimeter;outlineConnect=0;targetShapes=umlLifeline;portConstraint=eastwest;newEdgeStyle={&quot;edgeStyle&quot;:&quot;elbowEdgeStyle&quot;,&quot;elbow&quot;:&quot;vertical&quot;,&quot;curved&quot;:0,&quot;rounded&quot;:0};" vertex="1" parent="1">
          <mxGeometry x="-485" y="160" width="10" height="850" as="geometry" />
        </mxCell>
        <mxCell id="_bEzwFX_pjWzvq1VgmYF-9" value="Boundary&lt;div&gt;&lt;span style=&quot;background-color: initial;&quot;&gt;Main&lt;/span&gt;&lt;/div&gt;" style="shape=umlBoundary;whiteSpace=wrap;html=1;" vertex="1" parent="1">
          <mxGeometry x="-228" y="39" width="100" height="80" as="geometry" />
        </mxCell>
        <mxCell id="_bEzwFX_pjWzvq1VgmYF-10" style="edgeStyle=orthogonalEdgeStyle;rounded=0;orthogonalLoop=1;jettySize=auto;html=1;dashed=1;endArrow=none;endFill=0;exitX=0.495;exitY=0.995;exitDx=0;exitDy=0;exitPerimeter=0;" edge="1" parent="1" source="_bEzwFX_pjWzvq1VgmYF-11">
          <mxGeometry relative="1" as="geometry">
            <mxPoint x="70" y="580" as="targetPoint" />
            <mxPoint x="71.00000000000045" y="150.0000000000001" as="sourcePoint" />
          </mxGeometry>
        </mxCell>
        <mxCell id="_bEzwFX_pjWzvq1VgmYF-11" value="Control&lt;div&gt;&lt;span style=&quot;background-color: initial;&quot;&gt;Login&lt;/span&gt;&lt;/div&gt;" style="ellipse;shape=umlControl;whiteSpace=wrap;html=1;" vertex="1" parent="1">
          <mxGeometry x="31" y="29" width="80" height="90" as="geometry" />
        </mxCell>
        <mxCell id="_bEzwFX_pjWzvq1VgmYF-12" value="Visual Ops - Main.main" style="shape=umlFrame;whiteSpace=wrap;html=1;pointerEvents=0;width=150;height=40;" vertex="1" parent="1">
          <mxGeometry x="-590" width="1690" height="1030" as="geometry" />
        </mxCell>
        <mxCell id="_bEzwFX_pjWzvq1VgmYF-14" value="Banco VisualOps" style="shape=umlLifeline;perimeter=lifelinePerimeter;whiteSpace=wrap;html=1;container=0;dropTarget=0;collapsible=0;recursiveResize=0;outlineConnect=0;portConstraint=eastwest;newEdgeStyle={&quot;edgeStyle&quot;:&quot;elbowEdgeStyle&quot;,&quot;elbow&quot;:&quot;vertical&quot;,&quot;curved&quot;:0,&quot;rounded&quot;:0};" vertex="1" parent="1">
          <mxGeometry x="967" y="59" width="100" height="401" as="geometry" />
        </mxCell>
        <mxCell id="_bEzwFX_pjWzvq1VgmYF-19" value="if (isNullOrEmpty(email) ||&amp;nbsp;&lt;div&gt;isNullOrEmpty(senha))&lt;/div&gt;" style="text;html=1;align=center;verticalAlign=middle;resizable=0;points=[];autosize=1;strokeColor=none;fillColor=none;" vertex="1" parent="1">
          <mxGeometry x="97" y="270" width="160" height="40" as="geometry" />
        </mxCell>
        <mxCell id="_bEzwFX_pjWzvq1VgmYF-22" value="" style="html=1;points=[];perimeter=orthogonalPerimeter;outlineConnect=0;targetShapes=umlLifeline;portConstraint=eastwest;newEdgeStyle={&quot;edgeStyle&quot;:&quot;elbowEdgeStyle&quot;,&quot;elbow&quot;:&quot;vertical&quot;,&quot;curved&quot;:0,&quot;rounded&quot;:0};" vertex="1" parent="1">
          <mxGeometry x="-183" y="170" width="10" height="570" as="geometry" />
        </mxCell>
        <mxCell id="_bEzwFX_pjWzvq1VgmYF-74" style="edgeStyle=orthogonalEdgeStyle;rounded=0;orthogonalLoop=1;jettySize=auto;html=1;dashed=1;endArrow=none;endFill=0;exitX=0.495;exitY=0.995;exitDx=0;exitDy=0;exitPerimeter=0;" edge="1" parent="1" source="_bEzwFX_pjWzvq1VgmYF-75">
          <mxGeometry relative="1" as="geometry">
            <mxPoint x="541" y="480" as="targetPoint" />
            <mxPoint x="541.0000000000005" y="150.0000000000001" as="sourcePoint" />
          </mxGeometry>
        </mxCell>
        <mxCell id="_bEzwFX_pjWzvq1VgmYF-75" value="Control ServiceUser" style="ellipse;shape=umlControl;whiteSpace=wrap;html=1;" vertex="1" parent="1">
          <mxGeometry x="501" y="29" width="80" height="90" as="geometry" />
        </mxCell>
        <mxCell id="_bEzwFX_pjWzvq1VgmYF-76" style="edgeStyle=orthogonalEdgeStyle;rounded=0;orthogonalLoop=1;jettySize=auto;html=1;dashed=1;endArrow=none;endFill=0;exitX=0.495;exitY=0.995;exitDx=0;exitDy=0;exitPerimeter=0;" edge="1" parent="1" source="_bEzwFX_pjWzvq1VgmYF-77">
          <mxGeometry relative="1" as="geometry">
            <mxPoint x="311" y="550" as="targetPoint" />
            <mxPoint x="311.00000000000045" y="150.0000000000001" as="sourcePoint" />
          </mxGeometry>
        </mxCell>
        <mxCell id="_bEzwFX_pjWzvq1VgmYF-77" value="Control Seguranca" style="ellipse;shape=umlControl;whiteSpace=wrap;html=1;" vertex="1" parent="1">
          <mxGeometry x="271" y="29" width="80" height="90" as="geometry" />
        </mxCell>
        <mxCell id="_bEzwFX_pjWzvq1VgmYF-78" value="usuarioLogado = login(email, senha)" style="html=1;verticalAlign=bottom;endArrow=block;edgeStyle=elbowEdgeStyle;elbow=vertical;curved=0;rounded=0;" edge="1" parent="1">
          <mxGeometry x="-0.0036" relative="1" as="geometry">
            <mxPoint x="-172" y="183" as="sourcePoint" />
            <Array as="points">
              <mxPoint x="-87" y="183" />
            </Array>
            <mxPoint x="66" y="183" as="targetPoint" />
            <mxPoint as="offset" />
          </mxGeometry>
        </mxCell>
        <mxCell id="_bEzwFX_pjWzvq1VgmYF-79" value="" style="html=1;points=[];perimeter=orthogonalPerimeter;outlineConnect=0;targetShapes=umlLifeline;portConstraint=eastwest;newEdgeStyle={&quot;edgeStyle&quot;:&quot;elbowEdgeStyle&quot;,&quot;elbow&quot;:&quot;vertical&quot;,&quot;curved&quot;:0,&quot;rounded&quot;:0};" vertex="1" parent="1">
          <mxGeometry x="66" y="181" width="10" height="379" as="geometry" />
        </mxCell>
        <mxCell id="_bEzwFX_pjWzvq1VgmYF-80" value="usuairo = autenticarUsuario(email, senha)" style="html=1;verticalAlign=bottom;endArrow=block;edgeStyle=elbowEdgeStyle;elbow=vertical;curved=0;rounded=0;" edge="1" parent="1" target="_bEzwFX_pjWzvq1VgmYF-81">
          <mxGeometry x="-0.0029" relative="1" as="geometry">
            <mxPoint x="76" y="238" as="sourcePoint" />
            <Array as="points">
              <mxPoint x="161" y="238" />
            </Array>
            <mxPoint x="296" y="238" as="targetPoint" />
            <mxPoint as="offset" />
          </mxGeometry>
        </mxCell>
        <mxCell id="_bEzwFX_pjWzvq1VgmYF-81" value="" style="html=1;points=[];perimeter=orthogonalPerimeter;outlineConnect=0;targetShapes=umlLifeline;portConstraint=eastwest;newEdgeStyle={&quot;edgeStyle&quot;:&quot;elbowEdgeStyle&quot;,&quot;elbow&quot;:&quot;vertical&quot;,&quot;curved&quot;:0,&quot;rounded&quot;:0};" vertex="1" parent="1">
          <mxGeometry x="306" y="189" width="10" height="351" as="geometry" />
        </mxCell>
        <mxCell id="_bEzwFX_pjWzvq1VgmYF-82" value="usuario = autenticarUsuario(email, senha)" style="html=1;verticalAlign=bottom;endArrow=block;edgeStyle=elbowEdgeStyle;elbow=vertical;curved=0;rounded=0;" edge="1" parent="1" target="_bEzwFX_pjWzvq1VgmYF-83">
          <mxGeometry x="-0.0048" relative="1" as="geometry">
            <mxPoint x="316" y="348" as="sourcePoint" />
            <Array as="points">
              <mxPoint x="401" y="348" />
            </Array>
            <mxPoint x="525" y="348" as="targetPoint" />
            <mxPoint as="offset" />
          </mxGeometry>
        </mxCell>
        <mxCell id="_bEzwFX_pjWzvq1VgmYF-83" value="" style="html=1;points=[];perimeter=orthogonalPerimeter;outlineConnect=0;targetShapes=umlLifeline;portConstraint=eastwest;newEdgeStyle={&quot;edgeStyle&quot;:&quot;elbowEdgeStyle&quot;,&quot;elbow&quot;:&quot;vertical&quot;,&quot;curved&quot;:0,&quot;rounded&quot;:0};" vertex="1" parent="1">
          <mxGeometry x="535" y="345" width="10" height="123" as="geometry" />
        </mxCell>
        <mxCell id="_bEzwFX_pjWzvq1VgmYF-17" style="edgeStyle=elbowEdgeStyle;rounded=0;orthogonalLoop=1;jettySize=auto;html=1;elbow=horizontal;curved=0;dashed=1;dashPattern=8 8;" edge="1" parent="1" source="_bEzwFX_pjWzvq1VgmYF-24" target="_bEzwFX_pjWzvq1VgmYF-24">
          <mxGeometry relative="1" as="geometry">
            <Array as="points">
              <mxPoint x="341" y="301" />
            </Array>
          </mxGeometry>
        </mxCell>
        <mxCell id="_bEzwFX_pjWzvq1VgmYF-18" value="throw new AutenticationException" style="edgeLabel;html=1;align=center;verticalAlign=middle;resizable=0;points=[];" vertex="1" connectable="0" parent="_bEzwFX_pjWzvq1VgmYF-17">
          <mxGeometry x="0.2321" relative="1" as="geometry">
            <mxPoint x="88" y="-6" as="offset" />
          </mxGeometry>
        </mxCell>
        <mxCell id="_bEzwFX_pjWzvq1VgmYF-24" value="" style="html=1;points=[];perimeter=orthogonalPerimeter;outlineConnect=0;targetShapes=umlLifeline;portConstraint=eastwest;newEdgeStyle={&quot;edgeStyle&quot;:&quot;elbowEdgeStyle&quot;,&quot;elbow&quot;:&quot;vertical&quot;,&quot;curved&quot;:0,&quot;rounded&quot;:0};" vertex="1" parent="1">
          <mxGeometry x="313" y="288" width="10" height="25" as="geometry" />
        </mxCell>
        <mxCell id="_bEzwFX_pjWzvq1VgmYF-20" style="edgeStyle=elbowEdgeStyle;rounded=0;orthogonalLoop=1;jettySize=auto;html=1;elbow=horizontal;curved=0;" edge="1" parent="1" source="_bEzwFX_pjWzvq1VgmYF-23" target="_bEzwFX_pjWzvq1VgmYF-23">
          <mxGeometry relative="1" as="geometry">
            <Array as="points">
              <mxPoint x="341" y="270" />
            </Array>
          </mxGeometry>
        </mxCell>
        <mxCell id="_bEzwFX_pjWzvq1VgmYF-21" value="Logger.logWarning(message)" style="edgeLabel;html=1;align=center;verticalAlign=middle;resizable=0;points=[];" vertex="1" connectable="0" parent="_bEzwFX_pjWzvq1VgmYF-20">
          <mxGeometry x="0.2321" relative="1" as="geometry">
            <mxPoint x="76" y="-6" as="offset" />
          </mxGeometry>
        </mxCell>
        <mxCell id="_bEzwFX_pjWzvq1VgmYF-23" value="" style="html=1;points=[];perimeter=orthogonalPerimeter;outlineConnect=0;targetShapes=umlLifeline;portConstraint=eastwest;newEdgeStyle={&quot;edgeStyle&quot;:&quot;elbowEdgeStyle&quot;,&quot;elbow&quot;:&quot;vertical&quot;,&quot;curved&quot;:0,&quot;rounded&quot;:0};" vertex="1" parent="1">
          <mxGeometry x="313" y="257" width="10" height="25" as="geometry" />
        </mxCell>
        <mxCell id="_bEzwFX_pjWzvq1VgmYF-84" value="findByEmailAndSenha(email, senha)" style="html=1;verticalAlign=bottom;endArrow=block;edgeStyle=elbowEdgeStyle;elbow=vertical;curved=0;rounded=0;" edge="1" parent="1">
          <mxGeometry x="-0.0028" relative="1" as="geometry">
            <mxPoint x="545" y="358" as="sourcePoint" />
            <Array as="points">
              <mxPoint x="630" y="358" />
            </Array>
            <mxPoint x="782" y="358" as="targetPoint" />
            <mxPoint as="offset" />
          </mxGeometry>
        </mxCell>
        <mxCell id="_bEzwFX_pjWzvq1VgmYF-85" value="" style="html=1;points=[];perimeter=orthogonalPerimeter;outlineConnect=0;targetShapes=umlLifeline;portConstraint=eastwest;newEdgeStyle={&quot;edgeStyle&quot;:&quot;elbowEdgeStyle&quot;,&quot;elbow&quot;:&quot;vertical&quot;,&quot;curved&quot;:0,&quot;rounded&quot;:0};" vertex="1" parent="1">
          <mxGeometry x="782" y="356" width="10" height="102" as="geometry" />
        </mxCell>
        <mxCell id="_bEzwFX_pjWzvq1VgmYF-89" value="Control UsuarioDAO" style="ellipse;shape=umlControl;whiteSpace=wrap;html=1;" vertex="1" parent="1">
          <mxGeometry x="747" y="29" width="80" height="90" as="geometry" />
        </mxCell>
        <mxCell id="_bEzwFX_pjWzvq1VgmYF-91" value="" style="html=1;points=[];perimeter=orthogonalPerimeter;outlineConnect=0;targetShapes=umlLifeline;portConstraint=eastwest;newEdgeStyle={&quot;edgeStyle&quot;:&quot;elbowEdgeStyle&quot;,&quot;elbow&quot;:&quot;vertical&quot;,&quot;curved&quot;:0,&quot;rounded&quot;:0};" vertex="1" parent="1">
          <mxGeometry x="1012" y="406" width="10" height="40" as="geometry" />
        </mxCell>
        <mxCell id="_bEzwFX_pjWzvq1VgmYF-92" style="edgeStyle=elbowEdgeStyle;rounded=0;orthogonalLoop=1;jettySize=auto;html=1;elbow=horizontal;curved=0;" edge="1" parent="1" source="_bEzwFX_pjWzvq1VgmYF-94" target="_bEzwFX_pjWzvq1VgmYF-94">
          <mxGeometry relative="1" as="geometry">
            <Array as="points">
              <mxPoint x="817" y="375" />
            </Array>
          </mxGeometry>
        </mxCell>
        <mxCell id="_bEzwFX_pjWzvq1VgmYF-93" value="abrirConexao()" style="edgeLabel;html=1;align=center;verticalAlign=middle;resizable=0;points=[];" vertex="1" connectable="0" parent="_bEzwFX_pjWzvq1VgmYF-92">
          <mxGeometry x="0.2321" relative="1" as="geometry">
            <mxPoint x="44" y="-6" as="offset" />
          </mxGeometry>
        </mxCell>
        <mxCell id="_bEzwFX_pjWzvq1VgmYF-94" value="" style="html=1;points=[];perimeter=orthogonalPerimeter;outlineConnect=0;targetShapes=umlLifeline;portConstraint=eastwest;newEdgeStyle={&quot;edgeStyle&quot;:&quot;elbowEdgeStyle&quot;,&quot;elbow&quot;:&quot;vertical&quot;,&quot;curved&quot;:0,&quot;rounded&quot;:0};" vertex="1" parent="1">
          <mxGeometry x="789" y="362" width="10" height="25" as="geometry" />
        </mxCell>
        <mxCell id="_bEzwFX_pjWzvq1VgmYF-95" value="executeQuery()" style="html=1;verticalAlign=bottom;endArrow=block;edgeStyle=elbowEdgeStyle;elbow=vertical;curved=0;rounded=0;" edge="1" parent="1">
          <mxGeometry x="-0.0028" relative="1" as="geometry">
            <mxPoint x="792" y="408.14" as="sourcePoint" />
            <Array as="points">
              <mxPoint x="877" y="408.14" />
            </Array>
            <mxPoint x="1010" y="408" as="targetPoint" />
            <mxPoint as="offset" />
          </mxGeometry>
        </mxCell>
        <mxCell id="_bEzwFX_pjWzvq1VgmYF-97" value="retorna Optional&amp;lt;Usuario&amp;gt;" style="html=1;verticalAlign=bottom;endArrow=open;edgeStyle=elbowEdgeStyle;elbow=vertical;curved=0;rounded=0;dashed=1;dashPattern=8 8;endFill=0;" edge="1" parent="1">
          <mxGeometry x="-0.0028" relative="1" as="geometry">
            <mxPoint x="1011" y="442" as="sourcePoint" />
            <Array as="points">
              <mxPoint x="878" y="442.14" />
            </Array>
            <mxPoint x="793" y="442.14" as="targetPoint" />
            <mxPoint as="offset" />
          </mxGeometry>
        </mxCell>
        <mxCell id="_bEzwFX_pjWzvq1VgmYF-98" value="retorna Optional&amp;lt;Usuario&amp;gt;" style="html=1;verticalAlign=bottom;endArrow=open;edgeStyle=elbowEdgeStyle;elbow=vertical;curved=0;rounded=0;dashed=1;dashPattern=8 8;endFill=0;" edge="1" parent="1">
          <mxGeometry x="-0.0028" relative="1" as="geometry">
            <mxPoint x="782" y="452" as="sourcePoint" />
            <Array as="points">
              <mxPoint x="649" y="452.14" />
            </Array>
            <mxPoint x="545" y="452.1400000000001" as="targetPoint" />
            <mxPoint as="offset" />
          </mxGeometry>
        </mxCell>
        <mxCell id="_bEzwFX_pjWzvq1VgmYF-99" value="retorna usuario" style="html=1;verticalAlign=bottom;endArrow=open;edgeStyle=elbowEdgeStyle;elbow=vertical;curved=0;rounded=0;dashed=1;dashPattern=8 8;endFill=0;" edge="1" parent="1">
          <mxGeometry x="-0.0028" relative="1" as="geometry">
            <mxPoint x="525" y="459" as="sourcePoint" />
            <Array as="points">
              <mxPoint x="392" y="459.14" />
            </Array>
            <mxPoint x="316" y="459.14" as="targetPoint" />
            <mxPoint as="offset" />
          </mxGeometry>
        </mxCell>
        <mxCell id="_bEzwFX_pjWzvq1VgmYF-100" style="edgeStyle=elbowEdgeStyle;rounded=0;orthogonalLoop=1;jettySize=auto;html=1;elbow=horizontal;curved=0;dashed=1;dashPattern=8 8;" edge="1" parent="1" source="_bEzwFX_pjWzvq1VgmYF-102" target="_bEzwFX_pjWzvq1VgmYF-102">
          <mxGeometry relative="1" as="geometry">
            <Array as="points">
              <mxPoint x="341" y="516" />
            </Array>
          </mxGeometry>
        </mxCell>
        <mxCell id="_bEzwFX_pjWzvq1VgmYF-101" value="throw new AutenticationException" style="edgeLabel;html=1;align=center;verticalAlign=middle;resizable=0;points=[];" vertex="1" connectable="0" parent="_bEzwFX_pjWzvq1VgmYF-100">
          <mxGeometry x="0.2321" relative="1" as="geometry">
            <mxPoint x="88" y="-6" as="offset" />
          </mxGeometry>
        </mxCell>
        <mxCell id="_bEzwFX_pjWzvq1VgmYF-102" value="" style="html=1;points=[];perimeter=orthogonalPerimeter;outlineConnect=0;targetShapes=umlLifeline;portConstraint=eastwest;newEdgeStyle={&quot;edgeStyle&quot;:&quot;elbowEdgeStyle&quot;,&quot;elbow&quot;:&quot;vertical&quot;,&quot;curved&quot;:0,&quot;rounded&quot;:0};" vertex="1" parent="1">
          <mxGeometry x="313" y="503" width="10" height="25" as="geometry" />
        </mxCell>
        <mxCell id="_bEzwFX_pjWzvq1VgmYF-103" style="edgeStyle=elbowEdgeStyle;rounded=0;orthogonalLoop=1;jettySize=auto;html=1;elbow=horizontal;curved=0;" edge="1" parent="1" source="_bEzwFX_pjWzvq1VgmYF-105" target="_bEzwFX_pjWzvq1VgmYF-105">
          <mxGeometry relative="1" as="geometry">
            <Array as="points">
              <mxPoint x="341" y="485" />
            </Array>
          </mxGeometry>
        </mxCell>
        <mxCell id="_bEzwFX_pjWzvq1VgmYF-104" value="Logger.logWarning(message)" style="edgeLabel;html=1;align=center;verticalAlign=middle;resizable=0;points=[];" vertex="1" connectable="0" parent="_bEzwFX_pjWzvq1VgmYF-103">
          <mxGeometry x="0.2321" relative="1" as="geometry">
            <mxPoint x="76" y="-6" as="offset" />
          </mxGeometry>
        </mxCell>
        <mxCell id="_bEzwFX_pjWzvq1VgmYF-105" value="" style="html=1;points=[];perimeter=orthogonalPerimeter;outlineConnect=0;targetShapes=umlLifeline;portConstraint=eastwest;newEdgeStyle={&quot;edgeStyle&quot;:&quot;elbowEdgeStyle&quot;,&quot;elbow&quot;:&quot;vertical&quot;,&quot;curved&quot;:0,&quot;rounded&quot;:0};" vertex="1" parent="1">
          <mxGeometry x="313" y="472" width="10" height="25" as="geometry" />
        </mxCell>
        <mxCell id="_bEzwFX_pjWzvq1VgmYF-106" value="retorna True" style="html=1;verticalAlign=bottom;endArrow=open;edgeStyle=elbowEdgeStyle;elbow=vertical;curved=0;rounded=0;dashed=1;dashPattern=8 8;endFill=0;" edge="1" parent="1">
          <mxGeometry x="-0.0028" relative="1" as="geometry">
            <mxPoint x="296" y="536" as="sourcePoint" />
            <Array as="points">
              <mxPoint x="163" y="536.14" />
            </Array>
            <mxPoint x="76" y="536.1399999999999" as="targetPoint" />
            <mxPoint as="offset" />
          </mxGeometry>
        </mxCell>
        <mxCell id="_bEzwFX_pjWzvq1VgmYF-107" style="edgeStyle=elbowEdgeStyle;rounded=0;orthogonalLoop=1;jettySize=auto;html=1;elbow=horizontal;curved=0;" edge="1" parent="1" source="_bEzwFX_pjWzvq1VgmYF-109" target="_bEzwFX_pjWzvq1VgmYF-109">
          <mxGeometry relative="1" as="geometry">
            <Array as="points">
              <mxPoint x="101" y="201" />
            </Array>
          </mxGeometry>
        </mxCell>
        <mxCell id="_bEzwFX_pjWzvq1VgmYF-108" value="Logger.logInfo(message)" style="edgeLabel;html=1;align=center;verticalAlign=middle;resizable=0;points=[];" vertex="1" connectable="0" parent="_bEzwFX_pjWzvq1VgmYF-107">
          <mxGeometry x="0.2321" relative="1" as="geometry">
            <mxPoint x="66" y="-6" as="offset" />
          </mxGeometry>
        </mxCell>
        <mxCell id="_bEzwFX_pjWzvq1VgmYF-109" value="" style="html=1;points=[];perimeter=orthogonalPerimeter;outlineConnect=0;targetShapes=umlLifeline;portConstraint=eastwest;newEdgeStyle={&quot;edgeStyle&quot;:&quot;elbowEdgeStyle&quot;,&quot;elbow&quot;:&quot;vertical&quot;,&quot;curved&quot;:0,&quot;rounded&quot;:0};" vertex="1" parent="1">
          <mxGeometry x="73" y="188" width="10" height="25" as="geometry" />
        </mxCell>
        <mxCell id="_bEzwFX_pjWzvq1VgmYF-111" style="edgeStyle=elbowEdgeStyle;rounded=0;orthogonalLoop=1;jettySize=auto;html=1;elbow=horizontal;curved=0;" edge="1" parent="1" source="_bEzwFX_pjWzvq1VgmYF-113" target="_bEzwFX_pjWzvq1VgmYF-113">
          <mxGeometry relative="1" as="geometry">
            <Array as="points">
              <mxPoint x="101" y="344" />
            </Array>
          </mxGeometry>
        </mxCell>
        <mxCell id="_bEzwFX_pjWzvq1VgmYF-112" value="Logger.logInfo(message)" style="edgeLabel;html=1;align=center;verticalAlign=middle;resizable=0;points=[];" vertex="1" connectable="0" parent="_bEzwFX_pjWzvq1VgmYF-111">
          <mxGeometry x="0.2321" relative="1" as="geometry">
            <mxPoint x="66" y="-6" as="offset" />
          </mxGeometry>
        </mxCell>
        <mxCell id="_bEzwFX_pjWzvq1VgmYF-113" value="" style="html=1;points=[];perimeter=orthogonalPerimeter;outlineConnect=0;targetShapes=umlLifeline;portConstraint=eastwest;newEdgeStyle={&quot;edgeStyle&quot;:&quot;elbowEdgeStyle&quot;,&quot;elbow&quot;:&quot;vertical&quot;,&quot;curved&quot;:0,&quot;rounded&quot;:0};" vertex="1" parent="1">
          <mxGeometry x="73" y="331" width="10" height="25" as="geometry" />
        </mxCell>
        <mxCell id="_bEzwFX_pjWzvq1VgmYF-114" value="retorna Usuario" style="html=1;verticalAlign=bottom;endArrow=open;edgeStyle=elbowEdgeStyle;elbow=vertical;curved=0;rounded=0;dashed=1;dashPattern=8 8;endFill=0;" edge="1" parent="1" target="_bEzwFX_pjWzvq1VgmYF-22">
          <mxGeometry x="-0.0028" relative="1" as="geometry">
            <mxPoint x="66" y="556" as="sourcePoint" />
            <Array as="points">
              <mxPoint x="-67" y="556.14" />
            </Array>
            <mxPoint x="-154" y="556.1399999999999" as="targetPoint" />
            <mxPoint as="offset" />
          </mxGeometry>
        </mxCell>
        <mxCell id="_bEzwFX_pjWzvq1VgmYF-119" value="" style="group" vertex="1" connectable="0" parent="1">
          <mxGeometry x="-248" y="739" width="128" height="67" as="geometry" />
        </mxCell>
        <mxCell id="_bEzwFX_pjWzvq1VgmYF-118" value="verificar Maquina" style="whiteSpace=wrap;html=1;" vertex="1" parent="_bEzwFX_pjWzvq1VgmYF-119">
          <mxGeometry x="8" y="7" width="120" height="60" as="geometry" />
        </mxCell>
        <mxCell id="_bEzwFX_pjWzvq1VgmYF-117" value="Ref" style="text;html=1;align=center;verticalAlign=middle;resizable=0;points=[];autosize=1;strokeColor=none;fillColor=none;" vertex="1" parent="_bEzwFX_pjWzvq1VgmYF-119">
          <mxGeometry width="40" height="30" as="geometry" />
        </mxCell>
        <mxCell id="_bEzwFX_pjWzvq1VgmYF-120" value="Visual Ops - ServicePC.verificarMaquina" style="shape=umlFrame;whiteSpace=wrap;html=1;pointerEvents=0;width=175;height=41;" vertex="1" parent="1">
          <mxGeometry x="1275" y="29" width="1035" height="491" as="geometry" />
        </mxCell>
        <mxCell id="_bEzwFX_pjWzvq1VgmYF-121" style="edgeStyle=orthogonalEdgeStyle;rounded=0;orthogonalLoop=1;jettySize=auto;html=1;dashed=1;endArrow=none;endFill=0;exitX=0.509;exitY=1.015;exitDx=0;exitDy=0;exitPerimeter=0;" edge="1" parent="1">
          <mxGeometry relative="1" as="geometry">
            <mxPoint x="1662" y="510" as="targetPoint" />
            <mxPoint x="1662.9000000000005" y="158.20000000000005" as="sourcePoint" />
          </mxGeometry>
        </mxCell>
        <mxCell id="_bEzwFX_pjWzvq1VgmYF-122" value="Main" style="shape=umlLifeline;perimeter=lifelinePerimeter;whiteSpace=wrap;html=1;container=0;dropTarget=0;collapsible=0;recursiveResize=0;outlineConnect=0;portConstraint=eastwest;newEdgeStyle={&quot;edgeStyle&quot;:&quot;elbowEdgeStyle&quot;,&quot;elbow&quot;:&quot;vertical&quot;,&quot;curved&quot;:0,&quot;rounded&quot;:0};" vertex="1" parent="1">
          <mxGeometry x="1310" y="97" width="100" height="413" as="geometry" />
        </mxCell>
        <mxCell id="_bEzwFX_pjWzvq1VgmYF-123" value="maquina = verificarMaquina(Usuario)" style="html=1;verticalAlign=bottom;endArrow=block;edgeStyle=elbowEdgeStyle;elbow=vertical;curved=0;rounded=0;" edge="1" parent="1" source="_bEzwFX_pjWzvq1VgmYF-124" target="_bEzwFX_pjWzvq1VgmYF-126">
          <mxGeometry x="-0.0068" relative="1" as="geometry">
            <mxPoint x="1465" y="195" as="sourcePoint" />
            <Array as="points">
              <mxPoint x="1450" y="185" />
            </Array>
            <mxPoint as="offset" />
          </mxGeometry>
        </mxCell>
        <mxCell id="_bEzwFX_pjWzvq1VgmYF-124" value="" style="html=1;points=[];perimeter=orthogonalPerimeter;outlineConnect=0;targetShapes=umlLifeline;portConstraint=eastwest;newEdgeStyle={&quot;edgeStyle&quot;:&quot;elbowEdgeStyle&quot;,&quot;elbow&quot;:&quot;vertical&quot;,&quot;curved&quot;:0,&quot;rounded&quot;:0};" vertex="1" parent="1">
          <mxGeometry x="1355" y="175" width="10" height="325" as="geometry" />
        </mxCell>
        <mxCell id="_bEzwFX_pjWzvq1VgmYF-127" value="retorna maquina.get()" style="html=1;verticalAlign=bottom;endArrow=block;edgeStyle=elbowEdgeStyle;elbow=vertical;curved=0;rounded=0;dashed=1;dashPattern=8 8;" edge="1" parent="1">
          <mxGeometry x="-0.0068" relative="1" as="geometry">
            <mxPoint x="1657" y="496" as="sourcePoint" />
            <Array as="points">
              <mxPoint x="1450" y="496" />
            </Array>
            <mxPoint as="offset" />
            <mxPoint x="1365" y="496" as="targetPoint" />
          </mxGeometry>
        </mxCell>
        <mxCell id="_bEzwFX_pjWzvq1VgmYF-128" value="Control ServicePC" style="ellipse;shape=umlControl;whiteSpace=wrap;html=1;" vertex="1" parent="1">
          <mxGeometry x="1623" y="66" width="80" height="90" as="geometry" />
        </mxCell>
        <mxCell id="_bEzwFX_pjWzvq1VgmYF-135" value="Alt" style="shape=umlFrame;whiteSpace=wrap;html=1;pointerEvents=0;width=50;height=21;" vertex="1" parent="1">
          <mxGeometry x="1480" y="339" width="410" height="112" as="geometry" />
        </mxCell>
        <mxCell id="_bEzwFX_pjWzvq1VgmYF-136" value="if (maquina.isEmpty()&lt;span style=&quot;background-color: initial;&quot;&gt;)&lt;/span&gt;" style="text;html=1;align=center;verticalAlign=middle;resizable=0;points=[];autosize=1;strokeColor=none;fillColor=none;" vertex="1" parent="1">
          <mxGeometry x="1483" y="363" width="140" height="30" as="geometry" />
        </mxCell>
        <mxCell id="_bEzwFX_pjWzvq1VgmYF-137" style="edgeStyle=elbowEdgeStyle;rounded=0;orthogonalLoop=1;jettySize=auto;html=1;elbow=horizontal;curved=0;dashed=1;dashPattern=8 8;" edge="1" parent="1" source="_bEzwFX_pjWzvq1VgmYF-139" target="_bEzwFX_pjWzvq1VgmYF-139">
          <mxGeometry relative="1" as="geometry">
            <Array as="points">
              <mxPoint x="1692" y="365.5" />
            </Array>
          </mxGeometry>
        </mxCell>
        <mxCell id="_bEzwFX_pjWzvq1VgmYF-138" value="Logger.logWarning(message)" style="edgeLabel;html=1;align=center;verticalAlign=middle;resizable=0;points=[];" vertex="1" connectable="0" parent="_bEzwFX_pjWzvq1VgmYF-137">
          <mxGeometry x="0.2321" relative="1" as="geometry">
            <mxPoint x="79" y="-6" as="offset" />
          </mxGeometry>
        </mxCell>
        <mxCell id="_bEzwFX_pjWzvq1VgmYF-139" value="" style="html=1;points=[];perimeter=orthogonalPerimeter;outlineConnect=0;targetShapes=umlLifeline;portConstraint=eastwest;newEdgeStyle={&quot;edgeStyle&quot;:&quot;elbowEdgeStyle&quot;,&quot;elbow&quot;:&quot;vertical&quot;,&quot;curved&quot;:0,&quot;rounded&quot;:0};" vertex="1" parent="1">
          <mxGeometry x="1664" y="352.5" width="10" height="25" as="geometry" />
        </mxCell>
        <mxCell id="_bEzwFX_pjWzvq1VgmYF-140" value="" style="line;strokeWidth=1;fillColor=none;align=left;verticalAlign=middle;spacingTop=-1;spacingLeft=3;spacingRight=3;rotatable=0;labelPosition=right;points=[];portConstraint=eastwest;strokeColor=inherit;" vertex="1" parent="1">
          <mxGeometry x="1480" y="396" width="410" height="8" as="geometry" />
        </mxCell>
        <mxCell id="_bEzwFX_pjWzvq1VgmYF-141" style="edgeStyle=elbowEdgeStyle;rounded=0;orthogonalLoop=1;jettySize=auto;html=1;elbow=horizontal;curved=0;dashed=1;dashPattern=8 8;" edge="1" parent="1" source="_bEzwFX_pjWzvq1VgmYF-143" target="_bEzwFX_pjWzvq1VgmYF-143">
          <mxGeometry relative="1" as="geometry">
            <Array as="points">
              <mxPoint x="1692" y="426.5" />
            </Array>
          </mxGeometry>
        </mxCell>
        <mxCell id="_bEzwFX_pjWzvq1VgmYF-142" value="Logger.logWarning(message)" style="edgeLabel;html=1;align=center;verticalAlign=middle;resizable=0;points=[];" vertex="1" connectable="0" parent="_bEzwFX_pjWzvq1VgmYF-141">
          <mxGeometry x="0.2321" relative="1" as="geometry">
            <mxPoint x="79" y="-6" as="offset" />
          </mxGeometry>
        </mxCell>
        <mxCell id="_bEzwFX_pjWzvq1VgmYF-143" value="" style="html=1;points=[];perimeter=orthogonalPerimeter;outlineConnect=0;targetShapes=umlLifeline;portConstraint=eastwest;newEdgeStyle={&quot;edgeStyle&quot;:&quot;elbowEdgeStyle&quot;,&quot;elbow&quot;:&quot;vertical&quot;,&quot;curved&quot;:0,&quot;rounded&quot;:0};" vertex="1" parent="1">
          <mxGeometry x="1664" y="413.5" width="10" height="25" as="geometry" />
        </mxCell>
        <mxCell id="_bEzwFX_pjWzvq1VgmYF-144" value="else if (!maquina.get()&lt;div&gt;&lt;span style=&quot;background-color: initial;&quot;&gt;.getIpv4.contains(ipv4))&lt;/span&gt;&lt;/div&gt;" style="text;html=1;align=center;verticalAlign=middle;resizable=0;points=[];autosize=1;strokeColor=none;fillColor=none;" vertex="1" parent="1">
          <mxGeometry x="1478" y="407" width="150" height="40" as="geometry" />
        </mxCell>
        <mxCell id="_bEzwFX_pjWzvq1VgmYF-147" style="edgeStyle=orthogonalEdgeStyle;rounded=0;orthogonalLoop=1;jettySize=auto;html=1;dashed=1;endArrow=none;endFill=0;exitX=0.509;exitY=1.015;exitDx=0;exitDy=0;exitPerimeter=0;" edge="1" parent="1">
          <mxGeometry relative="1" as="geometry">
            <mxPoint x="1979" y="500" as="targetPoint" />
            <mxPoint x="1979.9000000000005" y="158.20000000000005" as="sourcePoint" />
          </mxGeometry>
        </mxCell>
        <mxCell id="_bEzwFX_pjWzvq1VgmYF-148" value="" style="html=1;points=[];perimeter=orthogonalPerimeter;outlineConnect=0;targetShapes=umlLifeline;portConstraint=eastwest;newEdgeStyle={&quot;edgeStyle&quot;:&quot;elbowEdgeStyle&quot;,&quot;elbow&quot;:&quot;vertical&quot;,&quot;curved&quot;:0,&quot;rounded&quot;:0};" vertex="1" parent="1">
          <mxGeometry x="1974" y="200" width="10" height="290" as="geometry" />
        </mxCell>
        <mxCell id="_bEzwFX_pjWzvq1VgmYF-149" value="Control MaquinaDAO" style="ellipse;shape=umlControl;whiteSpace=wrap;html=1;" vertex="1" parent="1">
          <mxGeometry x="1940" y="66" width="80" height="90" as="geometry" />
        </mxCell>
        <mxCell id="_bEzwFX_pjWzvq1VgmYF-151" value="ipv4 = MaquinaDAO.getIpv4()" style="html=1;verticalAlign=bottom;endArrow=block;edgeStyle=elbowEdgeStyle;elbow=vertical;curved=0;rounded=0;" edge="1" parent="1" target="_bEzwFX_pjWzvq1VgmYF-148">
          <mxGeometry x="-0.0068" relative="1" as="geometry">
            <mxPoint x="1667" y="200.21" as="sourcePoint" />
            <Array as="points">
              <mxPoint x="1752" y="200.21" />
            </Array>
            <mxPoint as="offset" />
            <mxPoint x="1959" y="200.21" as="targetPoint" />
          </mxGeometry>
        </mxCell>
        <mxCell id="_bEzwFX_pjWzvq1VgmYF-152" value="maquina = MaquinaDAO.monitorarMaquina(Usuario)" style="html=1;verticalAlign=bottom;endArrow=block;edgeStyle=elbowEdgeStyle;elbow=vertical;curved=0;rounded=0;" edge="1" parent="1">
          <mxGeometry x="-0.0068" relative="1" as="geometry">
            <mxPoint x="1667" y="280.21000000000004" as="sourcePoint" />
            <Array as="points">
              <mxPoint x="1980" y="280" />
            </Array>
            <mxPoint as="offset" />
            <mxPoint x="1974" y="280" as="targetPoint" />
          </mxGeometry>
        </mxCell>
        <mxCell id="_bEzwFX_pjWzvq1VgmYF-153" value="retorna ipv4" style="html=1;verticalAlign=bottom;endArrow=block;edgeStyle=elbowEdgeStyle;elbow=vertical;curved=0;rounded=0;dashed=1;dashPattern=8 8;" edge="1" parent="1" target="_bEzwFX_pjWzvq1VgmYF-126">
          <mxGeometry x="-0.0068" relative="1" as="geometry">
            <mxPoint x="1974" y="230.00000000000003" as="sourcePoint" />
            <Array as="points">
              <mxPoint x="1767" y="230.00000000000003" />
            </Array>
            <mxPoint as="offset" />
            <mxPoint x="1682" y="230.00000000000003" as="targetPoint" />
          </mxGeometry>
        </mxCell>
        <mxCell id="_bEzwFX_pjWzvq1VgmYF-154" value="retorna ipv4" style="html=1;verticalAlign=bottom;endArrow=block;edgeStyle=elbowEdgeStyle;elbow=vertical;curved=0;rounded=0;dashed=1;dashPattern=8 8;" edge="1" parent="1">
          <mxGeometry x="-0.0068" relative="1" as="geometry">
            <mxPoint x="1974" y="318" as="sourcePoint" />
            <Array as="points">
              <mxPoint x="1767" y="318" />
            </Array>
            <mxPoint as="offset" />
            <mxPoint x="1667" y="318" as="targetPoint" />
          </mxGeometry>
        </mxCell>
        <mxCell id="_bEzwFX_pjWzvq1VgmYF-155" style="edgeStyle=elbowEdgeStyle;rounded=0;orthogonalLoop=1;jettySize=auto;html=1;elbow=horizontal;curved=0;" edge="1" parent="1" source="_bEzwFX_pjWzvq1VgmYF-157" target="_bEzwFX_pjWzvq1VgmYF-157">
          <mxGeometry relative="1" as="geometry">
            <Array as="points">
              <mxPoint x="2008" y="301" />
            </Array>
          </mxGeometry>
        </mxCell>
        <mxCell id="_bEzwFX_pjWzvq1VgmYF-156" value="abrirConexao()" style="edgeLabel;html=1;align=center;verticalAlign=middle;resizable=0;points=[];" vertex="1" connectable="0" parent="_bEzwFX_pjWzvq1VgmYF-155">
          <mxGeometry x="0.2321" relative="1" as="geometry">
            <mxPoint x="44" y="-6" as="offset" />
          </mxGeometry>
        </mxCell>
        <mxCell id="_bEzwFX_pjWzvq1VgmYF-157" value="" style="html=1;points=[];perimeter=orthogonalPerimeter;outlineConnect=0;targetShapes=umlLifeline;portConstraint=eastwest;newEdgeStyle={&quot;edgeStyle&quot;:&quot;elbowEdgeStyle&quot;,&quot;elbow&quot;:&quot;vertical&quot;,&quot;curved&quot;:0,&quot;rounded&quot;:0};" vertex="1" parent="1">
          <mxGeometry x="1980" y="288" width="10" height="25" as="geometry" />
        </mxCell>
        <mxCell id="_bEzwFX_pjWzvq1VgmYF-158" value="executeQuery()" style="html=1;verticalAlign=bottom;endArrow=block;edgeStyle=elbowEdgeStyle;elbow=vertical;curved=0;rounded=0;" edge="1" parent="1" target="_bEzwFX_pjWzvq1VgmYF-160">
          <mxGeometry x="-0.0028" relative="1" as="geometry">
            <mxPoint x="1983" y="334.14" as="sourcePoint" />
            <Array as="points" />
            <mxPoint x="2180" y="334" as="targetPoint" />
            <mxPoint as="offset" />
          </mxGeometry>
        </mxCell>
        <mxCell id="_bEzwFX_pjWzvq1VgmYF-159" value="Banco VisualOps" style="shape=umlLifeline;perimeter=lifelinePerimeter;whiteSpace=wrap;html=1;container=0;dropTarget=0;collapsible=0;recursiveResize=0;outlineConnect=0;portConstraint=eastwest;newEdgeStyle={&quot;edgeStyle&quot;:&quot;elbowEdgeStyle&quot;,&quot;elbow&quot;:&quot;vertical&quot;,&quot;curved&quot;:0,&quot;rounded&quot;:0};" vertex="1" parent="1">
          <mxGeometry x="2181" y="95" width="100" height="285" as="geometry" />
        </mxCell>
        <mxCell id="_bEzwFX_pjWzvq1VgmYF-160" value="" style="html=1;points=[];perimeter=orthogonalPerimeter;outlineConnect=0;targetShapes=umlLifeline;portConstraint=eastwest;newEdgeStyle={&quot;edgeStyle&quot;:&quot;elbowEdgeStyle&quot;,&quot;elbow&quot;:&quot;vertical&quot;,&quot;curved&quot;:0,&quot;rounded&quot;:0};" vertex="1" parent="1">
          <mxGeometry x="2225" y="332" width="10" height="38" as="geometry" />
        </mxCell>
        <mxCell id="_bEzwFX_pjWzvq1VgmYF-161" style="edgeStyle=elbowEdgeStyle;rounded=0;orthogonalLoop=1;jettySize=auto;html=1;elbow=horizontal;curved=0;" edge="1" parent="1" source="_bEzwFX_pjWzvq1VgmYF-163" target="_bEzwFX_pjWzvq1VgmYF-163">
          <mxGeometry relative="1" as="geometry">
            <Array as="points">
              <mxPoint x="2008" y="388" />
            </Array>
          </mxGeometry>
        </mxCell>
        <mxCell id="_bEzwFX_pjWzvq1VgmYF-162" value="maquina = criaMaquina(resultSet, usuario)" style="edgeLabel;html=1;align=center;verticalAlign=middle;resizable=0;points=[];" vertex="1" connectable="0" parent="_bEzwFX_pjWzvq1VgmYF-161">
          <mxGeometry x="0.2321" relative="1" as="geometry">
            <mxPoint x="106" y="-6" as="offset" />
          </mxGeometry>
        </mxCell>
        <mxCell id="_bEzwFX_pjWzvq1VgmYF-163" value="" style="html=1;points=[];perimeter=orthogonalPerimeter;outlineConnect=0;targetShapes=umlLifeline;portConstraint=eastwest;newEdgeStyle={&quot;edgeStyle&quot;:&quot;elbowEdgeStyle&quot;,&quot;elbow&quot;:&quot;vertical&quot;,&quot;curved&quot;:0,&quot;rounded&quot;:0};" vertex="1" parent="1">
          <mxGeometry x="1980" y="375" width="10" height="25" as="geometry" />
        </mxCell>
        <mxCell id="_bEzwFX_pjWzvq1VgmYF-164" value="return resutlSet" style="html=1;verticalAlign=bottom;endArrow=block;edgeStyle=elbowEdgeStyle;elbow=vertical;curved=0;rounded=0;dashed=1;dashPattern=8 8;" edge="1" parent="1" source="_bEzwFX_pjWzvq1VgmYF-160" target="_bEzwFX_pjWzvq1VgmYF-148">
          <mxGeometry x="-0.0068" relative="1" as="geometry">
            <mxPoint x="2205" y="364.71000000000004" as="sourcePoint" />
            <Array as="points">
              <mxPoint x="1998" y="364.71000000000004" />
            </Array>
            <mxPoint as="offset" />
            <mxPoint x="1898" y="364.71" as="targetPoint" />
          </mxGeometry>
        </mxCell>
        <mxCell id="_bEzwFX_pjWzvq1VgmYF-165" style="edgeStyle=elbowEdgeStyle;rounded=0;orthogonalLoop=1;jettySize=auto;html=1;elbow=horizontal;curved=0;" edge="1" parent="1" source="_bEzwFX_pjWzvq1VgmYF-167" target="_bEzwFX_pjWzvq1VgmYF-167">
          <mxGeometry relative="1" as="geometry">
            <Array as="points">
              <mxPoint x="2008" y="428" />
            </Array>
          </mxGeometry>
        </mxCell>
        <mxCell id="_bEzwFX_pjWzvq1VgmYF-166" value="especificarMaquina(maquina)" style="edgeLabel;html=1;align=center;verticalAlign=middle;resizable=0;points=[];" vertex="1" connectable="0" parent="_bEzwFX_pjWzvq1VgmYF-165">
          <mxGeometry x="0.2321" relative="1" as="geometry">
            <mxPoint x="76" y="-6" as="offset" />
          </mxGeometry>
        </mxCell>
        <mxCell id="_bEzwFX_pjWzvq1VgmYF-167" value="" style="html=1;points=[];perimeter=orthogonalPerimeter;outlineConnect=0;targetShapes=umlLifeline;portConstraint=eastwest;newEdgeStyle={&quot;edgeStyle&quot;:&quot;elbowEdgeStyle&quot;,&quot;elbow&quot;:&quot;vertical&quot;,&quot;curved&quot;:0,&quot;rounded&quot;:0};" vertex="1" parent="1">
          <mxGeometry x="1980" y="415" width="10" height="25" as="geometry" />
        </mxCell>
        <mxCell id="_bEzwFX_pjWzvq1VgmYF-168" value="retorna Optional&amp;lt;Maquina&amp;gt;" style="html=1;verticalAlign=bottom;endArrow=block;edgeStyle=elbowEdgeStyle;elbow=vertical;curved=0;rounded=0;dashed=1;dashPattern=8 8;" edge="1" parent="1">
          <mxGeometry x="-0.0619" y="-1" relative="1" as="geometry">
            <mxPoint x="1974" y="485.43" as="sourcePoint" />
            <Array as="points">
              <mxPoint x="1767" y="485.43" />
            </Array>
            <mxPoint as="offset" />
            <mxPoint x="1667" y="485.43" as="targetPoint" />
          </mxGeometry>
        </mxCell>
        <mxCell id="_bEzwFX_pjWzvq1VgmYF-126" value="" style="html=1;points=[];perimeter=orthogonalPerimeter;outlineConnect=0;targetShapes=umlLifeline;portConstraint=eastwest;newEdgeStyle={&quot;edgeStyle&quot;:&quot;elbowEdgeStyle&quot;,&quot;elbow&quot;:&quot;vertical&quot;,&quot;curved&quot;:0,&quot;rounded&quot;:0};" vertex="1" parent="1">
          <mxGeometry x="1657" y="185" width="10" height="315" as="geometry" />
        </mxCell>
        <mxCell id="_bEzwFX_pjWzvq1VgmYF-170" value="Alt" style="shape=umlFrame;whiteSpace=wrap;html=1;pointerEvents=0;width=50;height=21;" vertex="1" parent="1">
          <mxGeometry x="-340" y="835" width="360" height="70" as="geometry" />
        </mxCell>
        <mxCell id="_bEzwFX_pjWzvq1VgmYF-171" value="if (maquina == null&lt;span style=&quot;background-color: initial;&quot;&gt;)&lt;/span&gt;" style="text;html=1;align=center;verticalAlign=middle;resizable=0;points=[];autosize=1;strokeColor=none;fillColor=none;" vertex="1" parent="1">
          <mxGeometry x="-338" y="859" width="130" height="30" as="geometry" />
        </mxCell>
        <mxCell id="_bEzwFX_pjWzvq1VgmYF-169" value="" style="html=1;points=[];perimeter=orthogonalPerimeter;outlineConnect=0;targetShapes=umlLifeline;portConstraint=eastwest;newEdgeStyle={&quot;edgeStyle&quot;:&quot;elbowEdgeStyle&quot;,&quot;elbow&quot;:&quot;vertical&quot;,&quot;curved&quot;:0,&quot;rounded&quot;:0};" vertex="1" parent="1">
          <mxGeometry x="-183" y="813" width="10" height="190" as="geometry" />
        </mxCell>
        <mxCell id="_bEzwFX_pjWzvq1VgmYF-172" style="edgeStyle=elbowEdgeStyle;rounded=0;orthogonalLoop=1;jettySize=auto;html=1;elbow=horizontal;curved=0;" edge="1" parent="1" source="_bEzwFX_pjWzvq1VgmYF-174" target="_bEzwFX_pjWzvq1VgmYF-174">
          <mxGeometry relative="1" as="geometry">
            <Array as="points">
              <mxPoint x="-149" y="869.5" />
            </Array>
          </mxGeometry>
        </mxCell>
        <mxCell id="_bEzwFX_pjWzvq1VgmYF-173" value="Logger.logWarning(message)" style="edgeLabel;html=1;align=center;verticalAlign=middle;resizable=0;points=[];" vertex="1" connectable="0" parent="_bEzwFX_pjWzvq1VgmYF-172">
          <mxGeometry x="0.2321" relative="1" as="geometry">
            <mxPoint x="76" y="-6" as="offset" />
          </mxGeometry>
        </mxCell>
        <mxCell id="_bEzwFX_pjWzvq1VgmYF-174" value="" style="html=1;points=[];perimeter=orthogonalPerimeter;outlineConnect=0;targetShapes=umlLifeline;portConstraint=eastwest;newEdgeStyle={&quot;edgeStyle&quot;:&quot;elbowEdgeStyle&quot;,&quot;elbow&quot;:&quot;vertical&quot;,&quot;curved&quot;:0,&quot;rounded&quot;:0};" vertex="1" parent="1">
          <mxGeometry x="-177" y="856.5" width="10" height="25" as="geometry" />
        </mxCell>
        <mxCell id="_bEzwFX_pjWzvq1VgmYF-175" style="edgeStyle=elbowEdgeStyle;rounded=0;orthogonalLoop=1;jettySize=auto;html=1;elbow=horizontal;curved=0;" edge="1" parent="1" source="_bEzwFX_pjWzvq1VgmYF-177" target="_bEzwFX_pjWzvq1VgmYF-177">
          <mxGeometry relative="1" as="geometry">
            <Array as="points">
              <mxPoint x="-149" y="938" />
            </Array>
          </mxGeometry>
        </mxCell>
        <mxCell id="_bEzwFX_pjWzvq1VgmYF-176" value="Logger.logInfo(message +&amp;nbsp;&lt;div&gt;usuarioLogado.getEmail())&lt;/div&gt;" style="edgeLabel;html=1;align=center;verticalAlign=middle;resizable=0;points=[];" vertex="1" connectable="0" parent="_bEzwFX_pjWzvq1VgmYF-175">
          <mxGeometry x="0.2321" relative="1" as="geometry">
            <mxPoint x="71" y="-6" as="offset" />
          </mxGeometry>
        </mxCell>
        <mxCell id="_bEzwFX_pjWzvq1VgmYF-177" value="" style="html=1;points=[];perimeter=orthogonalPerimeter;outlineConnect=0;targetShapes=umlLifeline;portConstraint=eastwest;newEdgeStyle={&quot;edgeStyle&quot;:&quot;elbowEdgeStyle&quot;,&quot;elbow&quot;:&quot;vertical&quot;,&quot;curved&quot;:0,&quot;rounded&quot;:0};" vertex="1" parent="1">
          <mxGeometry x="-177" y="925" width="10" height="25" as="geometry" />
        </mxCell>
        <mxCell id="_bEzwFX_pjWzvq1VgmYF-180" value="if (usuarioLogado == null&lt;span style=&quot;background-color: initial;&quot;&gt;)&lt;/span&gt;" style="text;html=1;align=center;verticalAlign=middle;resizable=0;points=[];autosize=1;strokeColor=none;fillColor=none;" vertex="1" parent="1">
          <mxGeometry x="-446" y="664" width="160" height="30" as="geometry" />
        </mxCell>
        <mxCell id="_bEzwFX_pjWzvq1VgmYF-181" style="edgeStyle=elbowEdgeStyle;rounded=0;orthogonalLoop=1;jettySize=auto;html=1;elbow=horizontal;curved=0;" edge="1" parent="1" source="_bEzwFX_pjWzvq1VgmYF-183" target="_bEzwFX_pjWzvq1VgmYF-183">
          <mxGeometry relative="1" as="geometry">
            <Array as="points">
              <mxPoint x="-149" y="981" />
            </Array>
          </mxGeometry>
        </mxCell>
        <mxCell id="_bEzwFX_pjWzvq1VgmYF-182" value="iniciarMonitoramento()" style="edgeLabel;html=1;align=center;verticalAlign=middle;resizable=0;points=[];" vertex="1" connectable="0" parent="_bEzwFX_pjWzvq1VgmYF-181">
          <mxGeometry x="0.2321" relative="1" as="geometry">
            <mxPoint x="60" y="-6" as="offset" />
          </mxGeometry>
        </mxCell>
        <mxCell id="_bEzwFX_pjWzvq1VgmYF-183" value="" style="html=1;points=[];perimeter=orthogonalPerimeter;outlineConnect=0;targetShapes=umlLifeline;portConstraint=eastwest;newEdgeStyle={&quot;edgeStyle&quot;:&quot;elbowEdgeStyle&quot;,&quot;elbow&quot;:&quot;vertical&quot;,&quot;curved&quot;:0,&quot;rounded&quot;:0};" vertex="1" parent="1">
          <mxGeometry x="-177" y="968" width="10" height="25" as="geometry" />
        </mxCell>
        <mxCell id="_bEzwFX_pjWzvq1VgmYF-184" style="edgeStyle=elbowEdgeStyle;rounded=0;orthogonalLoop=1;jettySize=auto;html=1;elbow=horizontal;curved=0;" edge="1" parent="1" source="_bEzwFX_pjWzvq1VgmYF-186" target="_bEzwFX_pjWzvq1VgmYF-186">
          <mxGeometry relative="1" as="geometry">
            <Array as="points">
              <mxPoint x="-149" y="674" />
            </Array>
          </mxGeometry>
        </mxCell>
        <mxCell id="_bEzwFX_pjWzvq1VgmYF-185" value="Logger.logWarning(message + email)" style="edgeLabel;html=1;align=center;verticalAlign=middle;resizable=0;points=[];" vertex="1" connectable="0" parent="_bEzwFX_pjWzvq1VgmYF-184">
          <mxGeometry x="0.2321" relative="1" as="geometry">
            <mxPoint x="97" y="-6" as="offset" />
          </mxGeometry>
        </mxCell>
        <mxCell id="_bEzwFX_pjWzvq1VgmYF-186" value="" style="html=1;points=[];perimeter=orthogonalPerimeter;outlineConnect=0;targetShapes=umlLifeline;portConstraint=eastwest;newEdgeStyle={&quot;edgeStyle&quot;:&quot;elbowEdgeStyle&quot;,&quot;elbow&quot;:&quot;vertical&quot;,&quot;curved&quot;:0,&quot;rounded&quot;:0};" vertex="1" parent="1">
          <mxGeometry x="-177" y="661" width="10" height="25" as="geometry" />
        </mxCell>
      </root>
    </mxGraphModel>
  </diagram>
</mxfile>
